<svg xmlns="http://www.w3.org/2000/svg" viewBox="0 0 720 200" width="720" height="200" role="img" aria-label="CC-Panes">
  <title>CC-Panes</title>
  <!-- 标记 -->
  <g transform="translate(20,20) scale(0.3125)">
    <rect width="512" height="512" rx="116" fill="#17181B"/>
    <path d="M168 120 L116 120 C92 120 76 136 76 160 L76 352 C76 376 92 392 116 392 L168 392"
          fill="none" stroke="#00E5FF" stroke-width="32" stroke-linecap="round" stroke-linejoin="round"/>
    <path d="M344 120 L396 120 C420 120 436 136 436 160 L436 352 C436 376 420 392 396 392 L344 392"
          fill="none" stroke="#FF6D00" stroke-width="32" stroke-linecap="round" stroke-linejoin="round"/>
    <path d="M210 196 L268 256 L210 316"
          fill="none" stroke="#FFFFFF" stroke-width="30" stroke-linecap="round" stroke-linejoin="round"/>
    <path d="M286 316 L330 316"
          fill="none" stroke="#FFFFFF" stroke-width="30" stroke-linecap="round"/>
  </g>
  <!-- 文字（currentColor 跟随上下文，默认深色，适配浅背景） -->
  <text x="210" y="128" font-family="'Segoe UI', system-ui, -apple-system, 'PingFang SC', 'Microsoft YaHei', sans-serif"
        font-size="92" font-weight="700" letter-spacing="-1" fill="currentColor" color="#17181B">CC<tspan fill="#FF6D00">-</tspan>Panes</text>
</svg>
